# xmcd CD database file
#
# Track frame offsets:
#	150
#	26000
#	48150
#	67345
#	91342
#	112485
#	125072
#	137392
#	152680
#	165335
#	178325
#	192412
#	205555
#	217110
#	228210
#	243875
#	257810
#	271417
#	283515
#	296507
#
# Disc length: 4153 seconds
#
# Revision: 0
# Processed by: cddbd v1.5PL3 Copyright (c) Steve Scherf et al.
# Submitted via: CDex 1.50
#
DISCID=2f103714
DTITLE=Compilation  - Mega Salsa CD2
DYEAR=2003
DGENRE=Salsa
TTITLE0=La Raza/Chico Divertido
TTITLE1=Conjunto Gloria Latina/Cana cana pide el central
TTITLE2=Andito/Rocho realidades
TTITLE3=Los Van Van/Artesandos del espacio
TTITLE4=Candido Fabre/Mujeres en el campo
TTITLE5=Carlos Puebla/Cuba va
TTITLE6=Compay Sugundo/Vicenta
TTITLE7=Sexteto Habanero/Carmela mia
TTITLE8=Benny Moré/El conde negro
TTITLE9=Gloria Matancera/Bailal hasta la dos
TTITLE10=Conjunto Niagara y Ruben Gonzalez/La Bamba en Cuba
TTITLE11=Tito Puente/Mambo Macoco
TTITLE12=Celia Cruz/La Guagua
TTITLE13=Omara Portuondo/Y tu que has echo eusebio delfin
TTITLE14=Maria Teresa Vera/Eso no es na
TTITLE15=Ignacio Pineiro/Entre preciosas palmeras
TTITLE16=Compay Segundo/Fruitas del caney
TTITLE17=Arsenio Rodriguez and Chano Pozo/Serende
TTITLE18=Gloria Matancera/Vengo arolando
TTITLE19=Roquesta Aragon/Adios felicidad
EXTD=YEAR: 2003
EXTT0=
EXTT1=
EXTT2=
EXTT3=
EXTT4=
EXTT5=
EXTT6=
EXTT7=
EXTT8=
EXTT9=
EXTT10=
EXTT11=
EXTT12=
EXTT13=
EXTT14=
EXTT15=
EXTT16=
EXTT17=
EXTT18=
EXTT19=
PLAYORDER=
